<?xml version="1.0" encoding="UTF-8"?>
<svg width="24px" height="18px" viewBox="0 0 24 18" version="1.1" xmlns="http://www.w3.org/2000/svg" xmlns:xlink="http://www.w3.org/1999/xlink">
    <!-- Generator: Sketch 63.1 (92452) - https://sketch.com -->
    <title>payments/ic-payments-bigfish_szep_kh-xs </title>
    <desc>Created with Sketch.</desc>
    <defs>
        <polygon id="path-1" points="0.139655385 0.0174984626 4.57956022 0.0174984626 4.57956022 4.47186006 0.139655385 4.47186006"></polygon>
        <polygon id="path-3" points="0.113724314 0.0520407799 4.80752466 0.0520407799 4.80752466 3.4107173 0.113724314 3.4107173"></polygon>
    </defs>
    <g id="payments/ic-payments-bigfish_szep_kh-xs-" stroke="none" stroke-width="1" fill="none" fill-rule="evenodd">
        <g id="Group-9">
            <rect id="Rectangle-Copy" fill="#19AEE8" x="1" y="1" width="22" height="16"></rect>
            <path d="M22.5,0.5 L1.5,0.5 C1.22385763,0.5 0.973857625,0.611928813 0.792893219,0.792893219 C0.611928813,0.973857625 0.5,1.22385763 0.5,1.5 L0.5,16.5 C0.5,16.7761424 0.611928813,17.0261424 0.792893219,17.2071068 C0.973857625,17.3880712 1.22385763,17.5 1.5,17.5 L22.5,17.5 C22.7761424,17.5 23.0261424,17.3880712 23.2071068,17.2071068 C23.3880712,17.0261424 23.5,16.7761424 23.5,16.5 L23.5,1.5 C23.5,1.22385763 23.3880712,0.973857625 23.2071068,0.792893219 C23.0261424,0.611928813 22.7761424,0.5 22.5,0.5 Z" id="card" stroke="#DCDCDC"></path>
            <g id="Group-13" transform="translate(5.500000, 3.500000)">
                <path d="M6.43907835,6.08569838 C4.69887107,6.08569838 2.9585155,6.08555009 1.21815993,6.08584668 C0.869377009,6.08584668 0.520594093,6.08555009 0.171811176,6.08940568 C0.0484321856,6.09074031 -0.000652485048,6.0275679 8.07100586e-05,5.91516252 C0.00112701963,5.70814681 0.00542748926,5.50098281 0.00824503833,5.29396709 C0.010024543,5.16361838 0.0619267627,5.09258648 0.205028597,5.07330851 C1.00165352,4.9653519 1.79694382,4.84805288 2.59297558,4.73594409 C3.06691699,4.66906437 3.54056182,4.59684614 4.01643103,4.54731659 C4.1402549,4.53441518 4.2913645,4.56600139 4.39694845,4.63080502 C5.05892419,5.03712525 5.75293101,5.19698409 6.53250235,5.05551347 C7.09067365,4.95422999 7.55734875,4.71117931 7.97301138,4.34993986 C8.13761557,4.20668974 8.3087446,4.16501967 8.52317491,4.16472309 C9.2627074,4.16383333 10.0022399,4.14114465 10.742069,4.12631544 C11.2981642,4.11504525 11.8544077,4.10347847 12.4105029,4.09131852 C12.4812382,4.0898356 12.5530115,4.0898356 12.6225605,4.07901028 C12.8022905,4.05157625 12.8613107,4.09028047 12.8630902,4.27549725 C12.8676873,4.69560865 12.8620522,5.11572004 12.8626454,5.53597973 C12.8629419,5.64779194 12.8682805,5.75975244 12.8756951,5.87141636 C12.8859272,6.02222938 12.821865,6.09044373 12.6720901,6.09044373 C10.5943701,6.08985056 8.51679835,6.08999885 6.43907835,6.08999885 L6.43907835,6.08569838 Z" id="Fill-1" fill="#FFFFFF"></path>
                <g id="Group-5" transform="translate(4.152178, 0.130794)">
                    <mask id="mask-2" fill="white">
                        <use xlink:href="#path-1"></use>
                    </mask>
                    <g id="Clip-4"></g>
                    <path d="M2.37205007,4.46670503 C1.0890272,4.51727262 0.163684772,3.44452788 0.140254627,2.32803699 C0.111485968,0.957966684 1.12194804,-0.0269891543 2.44278539,0.0189813832 C3.5924937,0.0590202384 4.49055039,0.878778726 4.57537345,2.16476744 C4.65396824,3.3564424 3.61518238,4.5605739 2.37205007,4.46670503" id="Fill-3" fill="#FFFFFF" mask="url(#mask-2)"></path>
                </g>
                <g id="Group-8" transform="translate(4.003886, 6.952228)">
                    <mask id="mask-4" fill="white">
                        <use xlink:href="#path-3"></use>
                    </mask>
                    <g id="Clip-7"></g>
                    <path d="M1.79452666,2.75938893 C1.91998174,2.73091685 2.02067205,2.71786715 2.11394775,2.68390827 C2.21701073,2.64653867 2.24266526,2.57521019 2.14064032,2.50403 C1.97129079,2.38598953 1.79971688,2.27091489 1.6238425,2.16295828 C1.58617632,2.13967642 1.51544101,2.13166865 1.47925775,2.15139149 C1.3064975,2.24674329 1.29848973,2.52760844 1.47021193,2.63126459 C1.57312662,2.69325067 1.69620903,2.72187104 1.79452666,2.75938893 M1.87549412,0.553248004 C1.71000019,0.586020548 1.48340993,0.698277635 1.48800698,0.80682742 C1.49171428,0.899658247 1.58261731,0.989671526 1.63837513,1.07894334 C1.65350092,1.10311495 1.68034178,1.12031683 1.70303046,1.13929821 C1.84005232,1.25377968 1.94029775,1.23791243 2.12269698,1.08131602 C2.2456311,0.975732072 2.27988656,0.838117044 2.18142064,0.72170778 C2.11127849,0.638664228 1.97974344,0.607522896 1.87549412,0.553248004 M4.77934917,3.35863713 C4.50322936,3.35863713 4.22681297,3.35834054 3.95069316,3.35878542 C3.74367745,3.359082 3.53592028,3.36886928 3.32964603,3.35670933 C3.24853027,3.35211228 3.16059308,3.31296317 3.09282361,3.26536142 C2.99687865,3.19774024 2.91442827,3.17861057 2.7981673,3.21983576 C2.08710689,3.47282201 1.3718943,3.4766776 0.661575351,3.21790796 C0.235680565,3.06279447 -0.00217989323,2.60709298 0.17043206,2.20210738 C0.244874673,2.02727104 0.427273902,1.87972045 0.592767837,1.76746336 C0.77902266,1.64111853 0.795334786,1.59915188 0.615753106,1.45797784 C0.194307081,1.12654509 0.214771385,0.75418374 0.56993086,0.38567798 C0.79637283,0.150931655 1.11490417,0.147224354 1.40778098,0.0944323815 C1.89892427,0.00634690001 2.3893261,0.0684812716 2.87172016,0.162795019 C3.09237874,0.205948008 3.3076988,0.322060688 3.382438,0.558289934 C3.46177425,0.808903509 3.4030506,1.04780201 3.18165056,1.20810572 C3.02683365,1.32021452 2.84843831,1.40014394 2.68116487,1.49564402 C2.64290552,1.51744295 2.58240236,1.53939018 2.57691555,1.56979005 C2.57053899,1.60404551 2.60701884,1.65505798 2.63816017,1.68530956 C2.67997853,1.72594159 2.73351196,1.75471024 2.7831898,1.78688962 C2.97819386,1.9141242 3.01363566,1.90656131 3.11580888,1.69746951 C3.18980662,1.54591503 3.30488126,1.48496699 3.47215469,1.4886743 C3.73136921,1.4941611 3.99073202,1.48837771 4.24979824,1.48333578 C4.43946378,1.47962848 4.52161758,1.57794611 4.42359653,1.73068693 C4.28168103,1.95268014 4.1197461,2.16355144 3.94846878,2.36389401 C3.8454058,2.48445545 3.83443219,2.53531963 3.96418774,2.63052313 C4.20249307,2.80535946 4.4409467,2.97975092 4.67569302,3.15903602 C4.72744695,3.19877829 4.7639268,3.25809511 4.80752466,3.30851441 C4.79818226,3.32512312 4.78869157,3.34202842 4.77934917,3.35863713" id="Fill-6" fill="#FFFFFF" mask="url(#mask-4)"></path>
                </g>
                <path d="M9.16987657,8.65981121 C9.16987657,8.19254294 9.17224924,7.72497809 9.16854194,7.25770982 C9.16720731,7.10259633 9.22756218,7.05618092 9.38430688,7.06359552 C9.68519147,7.07827643 9.98711409,7.07293792 10.2882953,7.06537502 C10.4832993,7.06048139 10.5322357,7.10155829 10.5266006,7.29611746 C10.5200757,7.52656332 10.5206689,7.75730576 10.5138475,7.98789991 C10.5099919,8.11899008 10.562339,8.19061515 10.6987677,8.18928052 C10.9053385,8.18735272 11.1122059,8.18942881 11.3186285,8.18231079 C11.4323685,8.1784552 11.4863468,8.10964768 11.4838258,7.99472134 C11.478339,7.74114192 11.4664756,7.48711763 11.4774493,7.23413138 C11.4798219,7.17703894 11.5630138,7.07783156 11.6120984,7.07575547 C11.9721516,7.06151943 12.3330944,7.06507844 12.6937407,7.06685794 C12.8260172,7.06759941 12.8595312,7.15657464 12.8589458,7.2712044 C12.855379,7.92176165 12.8524132,8.57246719 12.8494474,9.22332103 C12.8484093,9.5188671 12.8484093,9.81456146 12.8470747,10.1102558 C12.8463332,10.2607723 12.7916135,10.3283934 12.6200396,10.3183096 C12.3132233,10.3003662 12.0047758,10.3146023 11.6970698,10.3114881 C11.497617,10.309412 11.4643996,10.2649244 11.4704795,10.0648784 C11.4777458,9.82271752 11.4750766,9.58011172 11.4793771,9.3378025 C11.4817497,9.21116108 11.4182807,9.15080621 11.2972744,9.14932329 C11.0901104,9.14680233 10.8829464,9.14932329 10.6757824,9.14813696 C10.5340152,9.1473955 10.5154787,9.23666731 10.519186,9.35025903 C10.5264523,9.58663657 10.5354981,9.82331069 10.5329772,10.0596882 C10.5307528,10.2876131 10.4849305,10.3193476 10.254633,10.3148989 C9.97673365,10.309412 9.69838946,10.3098569 9.42034185,10.3120813 C9.1936033,10.3135642 9.1675039,10.2942863 9.16631756,10.0620609 C9.1637966,9.59479263 9.1655761,9.12722778 9.1655761,8.65981121 L9.16987657,8.65981121 Z" id="Fill-9" fill="#FFFFFF"></path>
                <path d="M1.33986322,9.03387793 C1.35380267,9.12314974 1.37797428,9.21197669 1.37990207,9.30154509 C1.38524059,9.56758104 1.38538888,9.83376528 1.38049524,10.0996529 C1.37767769,10.2494279 1.30204874,10.3169008 1.14144845,10.3128969 C0.828255622,10.3047408 0.514173047,10.3050374 0.2014251,10.3209047 C0.0464599013,10.3287642 -0.000252096496,10.2698922 0.000625231751,10.1302011 C0.00523470959,9.47964385 0.00864542688,8.8289383 0.00983176334,8.17838105 C0.0104249316,7.86533652 0.00671763015,7.55229199 0.00197228435,7.23895088 C-0.000103804439,7.10296706 0.0538745041,7.05358581 0.196086586,7.06011066 C0.496674584,7.07405011 0.798448919,7.07716424 1.09918521,7.06974964 C1.33304178,7.06411454 1.40155271,7.11067825 1.3942864,7.34942846 C1.38716838,7.59055134 1.35839972,7.83093277 1.34564661,8.07190736 C1.34297735,8.12455104 1.368187,8.17867764 1.38064353,8.23221107 C1.42928333,8.20670484 1.49290062,8.19276538 1.52359707,8.1533197 C1.61405523,8.03691043 1.69205685,7.91086218 1.77391407,7.78807636 C1.90515254,7.5912928 2.0346115,7.3934712 2.16673972,7.1974291 C2.23376773,7.09777684 2.31340057,7.06544917 2.44864292,7.07256719 C2.8018746,7.09140028 3.15718237,7.07093598 3.51160038,7.07034281 C3.57670059,7.07034281 3.64180081,7.09065882 3.70690102,7.10178072 C3.68436063,7.16480485 3.67635286,7.23939575 3.63705546,7.28937018 C3.3302392,7.67952658 3.018381,8.06567909 2.70548476,8.45079356 C2.6264451,8.54822144 2.64527819,8.62859574 2.71645838,8.72024023 C3.06776226,9.17282758 3.41728663,9.62719444 3.76265883,10.0845271 C3.79750747,10.130646 3.79973185,10.2016779 3.81708202,10.2609947 C3.763252,10.2767137 3.70942198,10.3048891 3.65544368,10.3057789 C3.25891072,10.3120072 2.86237776,10.3201632 2.46628968,10.3091896 C2.38220808,10.3066686 2.27084075,10.2483899 2.22294241,10.1801755 C2.01563012,9.88551921 1.82967188,9.57588539 1.63096052,9.2751491 C1.5660086,9.17697976 1.48563431,9.08919086 1.41237803,8.99665662 C1.38820643,9.00911315 1.36403482,9.02142139 1.33986322,9.03387793" id="Fill-11" fill="#FFFFFF"></path>
            </g>
        </g>
    </g>
</svg>
