<?xml version="1.0" encoding="UTF-8"?>
<svg width="24px" height="18px" viewBox="0 0 24 18" version="1.1" xmlns="http://www.w3.org/2000/svg" xmlns:xlink="http://www.w3.org/1999/xlink">
    <!-- Generator: Sketch 63.1 (92452) - https://sketch.com -->
    <title>payments/ic-payments-bigfish_szep_otp-xs </title>
    <desc>Created with Sketch.</desc>
    <g id="payments/ic-payments-bigfish_szep_otp-xs-" stroke="none" stroke-width="1" fill="none" fill-rule="evenodd">
        <g id="Group-11">
            <g id="Group-8-Copy">
                <rect id="Rectangle-Copy" fill="#F7F7F7" x="1" y="1" width="22" height="16"></rect>
                <path d="M22.5,0.5 L1.5,0.5 C1.22385763,0.5 0.973857625,0.611928813 0.792893219,0.792893219 C0.611928813,0.973857625 0.5,1.22385763 0.5,1.5 L0.5,16.5 C0.5,16.7761424 0.611928813,17.0261424 0.792893219,17.2071068 C0.973857625,17.3880712 1.22385763,17.5 1.5,17.5 L22.5,17.5 C22.7761424,17.5 23.0261424,17.3880712 23.2071068,17.2071068 C23.3880712,17.0261424 23.5,16.7761424 23.5,16.5 L23.5,1.5 C23.5,1.22385763 23.3880712,0.973857625 23.2071068,0.792893219 C23.0261424,0.611928813 22.7761424,0.5 22.5,0.5 Z" id="card" stroke="#DCDCDC"></path>
            </g>
            <g id="Otp_bank_Logo" transform="translate(5.500000, 2.500000)" fill-rule="nonzero">
                <path d="M4.06299697,11.7367493 C4.23063145,11.7568208 4.41276205,11.7012525 4.53634317,11.5988503 C4.67778064,11.4789788 4.80490043,11.2316156 4.80490043,10.963066 C4.80490043,10.6664532 4.61422074,10.6311422 4.54340536,10.6311422 C4.44101082,10.6311422 4.36332654,10.6841087 4.28916592,10.7335442 L4.06299697,11.7367493 L4.06299697,11.7367493 Z M4.34920215,10.383965 C4.44101082,10.3204051 4.59284087,10.2142862 4.82254849,10.2142862 C5.1756588,10.2142862 5.41242862,10.4791189 5.41242862,10.9277548 C5.41242862,11.1821801 5.32415847,11.482324 5.14034783,11.7049694 C4.7907759,12.1322329 4.34920215,12.1287018 3.97471197,12.1287018 L3.77362485,12.9730072 L3.74909303,12.9906627 C3.66769178,12.9906627 3.5900075,12.9869458 3.50879954,12.9869458 C3.38874194,12.9869458 3.28280888,12.9942013 3.15215056,12.9977249 L3.13430921,12.9730072 C3.13430921,12.9730072 3.25882707,12.5985243 3.41364563,11.9549343 C3.57625469,11.2795643 3.72827802,10.4884113 3.74165911,10.3272814 L3.76638422,10.3025637 L4.37038873,10.2038787 L4.39175375,10.2284105 L4.34920215,10.383965 L4.34920215,10.383965 Z M3.07112104,12.0898596 L3.04287226,12.1181085 C2.92968371,12.139481 2.79698848,12.1569506 2.72487963,12.1569506 C2.45819585,12.1569506 2.06680091,12.1166218 2.23257691,11.4438535 C2.34426385,10.9888988 2.42474336,10.6487977 2.42474336,10.6487977 L2.17738768,10.6558599 L2.15618609,10.6276111 L2.25877407,10.2707839 L2.28349918,10.2533141 L2.51655203,10.2533141 L2.61894657,9.79743009 L2.64367168,9.77289813 C2.90869027,9.71286947 2.97911907,9.69502813 3.22295109,9.62440603 L3.24413767,9.64559262 L3.08876925,10.2603763 L3.44894175,10.2533141 L3.46321486,10.2778461 C3.41358606,10.4261523 3.39946167,10.4651804 3.35356483,10.6311422 L3.32531591,10.6558599 L3.00045438,10.6487977 C3.00045438,10.6487977 2.93447113,10.9229228 2.8421123,11.3044679 C2.74230469,11.7172353 2.7947137,11.6960487 2.89469975,11.7354484 C2.98018968,11.7692726 3.09226305,11.726156 3.15582295,11.7049694 L3.17700953,11.7226249 L3.07107647,12.0898596 L3.07112104,12.0898596 Z M1.09687002,10.5852378 C0.930722253,10.5852378 0.742822942,10.6697984 0.634287962,11.1842245 C0.513680336,11.756635 0.754167069,11.793247 0.87087933,11.793247 C0.976812423,11.793247 1.20243136,11.7354484 1.31449002,11.187384 C1.3931109,10.8041663 1.33084462,10.5852378 1.09687002,10.5852378 M1.92166134,11.187384 C1.76981658,12.0536193 1.23085857,12.1640128 0.774610304,12.1640128 C0.324294241,12.1640128 -0.0908891954,11.8538332 0.0265813303,11.1831095 C0.118375162,10.6588334 0.429677248,10.1737713 1.18644849,10.2107551 C1.71425547,10.2365878 2.02479933,10.598433 1.92166134,11.187384" id="path13592" fill="#00674C"></path>
                <path d="M12.3549498,11.047069 L12.9022635,12.0891163 L12.8810767,12.1173651 L12.4891318,12.1279658 L12.4608829,12.1065933 C12.3692526,11.8584869 11.9698738,11.0788564 11.9698738,11.0788564 C11.8674642,11.5274924 11.8462776,11.6334254 11.7578291,12.0995312 L11.7332972,12.1209036 L11.376455,12.1279658 L11.3623306,12.1065933 C11.3623306,12.1065933 11.5507949,11.3234317 11.7137757,10.5984405 C11.7901517,10.2594545 11.9087224,9.72272674 11.9557492,9.39749363 L11.9802812,9.3763069 L12.3653572,9.31274715 L12.3867223,9.33746483 C12.3155501,9.58148271 11.9802812,11.0294209 11.9802812,11.0294209 C12.2335839,10.8075189 12.6550862,10.3653876 12.7115988,10.3053588 L12.7504334,10.2841722 L13.1566962,10.2841722 L13.1672524,10.3159523 C13.0668946,10.3951233 12.881047,10.5631295 12.8139636,10.6231581 L12.3549201,11.0470764 L12.3549498,11.047069 Z M11.0051464,12.1004529 L10.9770761,12.1216396 L10.6167252,12.1322255 L10.6026006,12.1076935 C10.6544448,11.8698087 10.8718863,11.0730803 10.8746816,10.8253454 C10.8769116,10.6134793 10.7440232,10.5428572 10.5778755,10.5428572 C10.3589619,10.5428572 10.213986,10.6523214 10.1080677,10.7301915 C9.97740952,11.3234169 9.93503621,11.5105653 9.82204095,12.1004455 L9.79713741,12.1216322 L9.43714319,12.1322255 L9.41930184,12.1076861 C9.41930184,12.1076861 9.52654337,11.6752189 9.62336247,11.2256536 C9.69920313,10.8736583 9.76145471,10.5837362 9.79007521,10.3415768 L9.81497875,10.3168591 C9.98093319,10.2956725 10.0197827,10.2886104 10.1894541,10.2532992 L10.2071171,10.2778312 L10.1576816,10.4579175 C10.2953873,10.3662945 10.4719424,10.2425201 10.7650314,10.2425201 C10.8815505,10.2425201 11.2631028,10.2744858 11.2631028,10.7017495 C11.2631028,10.9572898 11.0397141,11.8510307 11.0051464,12.100438 M8.99482599,10.5499268 C8.94167367,10.5499268 8.88889293,10.5464032 8.83574061,10.5464032 C8.71922153,10.5464032 8.48969234,10.5534654 8.28117145,10.6948953 C7.91041294,10.948949 7.90333589,11.4046471 7.90333589,11.4224885 C7.90333589,11.5919814 7.99515942,11.8638765 8.31648242,11.8638765 C8.41200806,11.8638765 8.56960683,11.8415748 8.74039326,11.6906666 L8.99482599,10.5499343 L8.99482599,10.5499268 Z M9.25612777,10.9985628 C9.1325465,11.5425387 9.10782139,11.6767205 9.0371993,12.0971077 L9.01229576,12.1216396 L8.68037203,12.1287018 L8.66270897,12.1039841 L8.68743423,11.9629258 C8.62741286,12.0121753 8.47204429,12.1428262 8.17171472,12.1428262 C7.81134878,12.1428262 7.5182747,11.8885868 7.5182747,11.447013 C7.5182747,11.1680557 7.65244168,10.8641951 7.80094135,10.6876398 C8.12934141,10.3025637 8.58502469,10.2813772 8.91007951,10.2813772 L9.39737181,10.2850941 L9.41503487,10.313157 L9.25612777,10.9985628 L9.25612777,10.9985628 Z M5.87538224,11.8462135 C6.0751759,11.8555059 6.36993002,11.849752 6.59944435,11.6943761 C6.86074599,11.5141039 6.98452055,11.1998358 6.98452055,10.9736592 C6.98452055,10.6523288 6.7901239,10.5287403 6.56413338,10.5287403 C6.38386112,10.5287403 6.25674147,10.6064244 6.14374622,10.6770465 C6.14374622,10.6770465 5.89731227,11.7596085 5.87538224,11.8462135 M5.44439435,12.1039841 C5.46800443,11.9969359 5.62020621,11.3693287 5.77596121,10.6634797 C5.90901331,10.0581741 6.00175858,9.68053201 6.03428934,9.39841537 L6.06253826,9.37351183 L6.44761431,9.3066067 L6.46526237,9.33132438 L6.3663915,9.72346277 L6.20376744,10.4016205 C6.35226711,10.3204051 6.49333286,10.2425349 6.71950181,10.2425349 C7.06908859,10.2425349 7.36235597,10.4791189 7.36235597,10.9244096 C7.36235597,11.1044959 7.30585841,11.4434819 7.06908859,11.7155627 C6.7512744,12.0794522 6.3593293,12.1039841 5.90363117,12.1216396 L5.70942781,12.1216396 L5.46205727,12.1251633 L5.44439435,12.1039766 L5.44439435,12.1039841 Z" id="path13608" fill="#6EC72D"></path>
                <path d="M4.76066864,4.14338986 C4.76066864,3.13014906 5.58192158,2.30870283 6.59516238,2.30870283 C7.60841818,2.30870283 8.42949269,3.13014906 8.42949269,4.14338986 C8.42949269,5.15644495 7.60841818,5.97789118 6.59516238,5.97789118 C5.58192158,5.97789118 4.76066864,5.15644495 4.76066864,4.14338986" id="path13616" fill="#6EC72D"></path>
                <path d="M7.86729632,1.81955206 C7.86729632,1.23896433 8.33805559,0.768212491 8.91864346,0.768212491 C9.49940962,0.768212491 9.97034733,1.23896433 9.97034733,1.81955206 C9.97034733,2.40032565 9.49940962,2.87107763 8.91864346,2.87107763 C8.33805559,2.87107763 7.86729632,2.40032565 7.86729632,1.81955206 M2.44946847,4.14338986 C2.44946847,1.86081019 4.29845832,0.01032616 6.58011625,0.00753845486 L6.58011625,1.50212445 C5.12362151,1.50472638 3.94387611,2.68615925 3.94387611,4.14338986 C3.94387611,5.60210738 5.12641658,6.78446957 6.58494824,6.78446957 C8.0349308,6.78446957 9.22621366,5.61325826 9.22621366,4.13335416 L10.7206064,4.13424559 C10.7206064,6.42741855 8.8691931,8.2788319 6.58494824,8.2788319 C4.30088182,8.2788319 2.44946847,6.42741855 2.44946847,4.14335213" id="path13620" fill="#00674C"></path>
            </g>
        </g>
    </g>
</svg>
