<?xml version="1.0" encoding="UTF-8"?>
<svg width="24px" height="18px" viewBox="0 0 24 18" version="1.1" xmlns="http://www.w3.org/2000/svg" xmlns:xlink="http://www.w3.org/1999/xlink">
    <!-- Generator: Sketch 63.1 (92452) - https://sketch.com -->
    <title>payments/ic-payments-bigfish_szep_mkb-xs</title>
    <desc>Created with Sketch.</desc>
    <g id="payments/ic-payments-bigfish_szep_mkb-xs" stroke="none" stroke-width="1" fill="none" fill-rule="evenodd">
        <g id="Group-10" transform="translate(0.000000, -3.000000)">
            <rect id="Rectangle-Copy-4" fill="#B60439" x="1" y="4" width="22" height="16"></rect>
            <g id="MKB_Bank_logo" transform="translate(5.000000, 0.000000)">
                <polygon id="path13514" fill="#FFFFFF" fill-rule="nonzero" points="0 9.89010989e-06 0 17.9196527 14.1675824 17.9196527 14.1675824 9.89010989e-06"></polygon>
                <polygon id="path13516" fill="#000000" fill-rule="nonzero" points="0 14.7362637 0 17.9196429 14.1675824 17.9196429 14.1675824 14.7362637"></polygon>
                <path d="M0,4 L0,14.3777473 L6.0206044,14.3777473 C6.36576923,14.3777473 6.45947802,14.2808242 6.45947802,13.7534341 L6.45947802,8.19024725 C6.45947802,7.76843407 6.42436813,7.67447802 6.28021978,7.62774725 C6.04953297,7.55728022 5.9217033,7.57607143 5.9217033,7.42376374 C5.9217033,7.3532967 5.98005495,7.29395604 6.07623626,7.29395604 C6.21074176,7.29395604 6.50076923,7.34340659 6.81799451,7.34340659 C7.06796703,7.34340659 7.29964286,7.29395604 7.49175824,7.29395604 C7.60722527,7.29395604 7.64629121,7.34241758 7.64629121,7.43612637 C7.64629121,7.6003022 7.56568681,7.54565934 7.30631868,7.62774725 C7.16192308,7.67447802 7.09615385,7.78771978 7.09615385,7.99862637 L7.09615385,10.2053571 C7.09615385,10.5453297 7.10776484,10.5762363 7.12706044,10.5762363 C7.14634615,10.5762363 7.21013736,10.4753571 7.30631868,10.3228022 C7.48879121,10.0414286 8.17120879,9.045 8.5364011,8.40041209 C8.68054945,8.14252747 8.77747253,7.93854396 8.77747253,7.85645604 C8.77747253,7.70414835 8.69785714,7.63763736 8.50549451,7.59065934 C8.34206044,7.55554945 8.2706044,7.52909341 8.2706044,7.42376374 C8.2706044,7.3532967 8.32475275,7.29395604 8.44986264,7.29395604 C8.6132967,7.29395604 8.9053022,7.34340659 9.13598901,7.34340659 C9.40524725,7.34340659 9.65126374,7.29395604 9.76648352,7.29395604 C9.92027473,7.29395604 9.97046703,7.34167582 9.97046703,7.42376374 C9.97046703,7.56445055 9.88467033,7.53131868 9.69230769,7.5782967 C9.51923077,7.62527473 9.27445055,7.8567033 8.93818681,8.31387363 C8.61131868,8.75942308 8.29582418,9.21857143 8.01717033,9.71085165 C7.88241758,9.94524725 7.875,9.99173077 7.875,10.0384615 C7.875,10.0854396 7.8928022,10.1324176 7.99862637,10.3784341 C8.15241758,10.7300275 8.46791209,11.4806868 9.17925824,13.2156593 C9.28879121,13.4829396 9.37582418,13.6844505 9.44505495,13.8399725 C9.66164835,14.3250824 9.8681044,14.3777473 10.0570055,14.3777473 L14.1675824,14.3777473 L14.1675824,4 L0,4 Z M11.1201923,8.2396978 C11.6307692,8.2396978 11.9541758,8.3517033 12.1895604,8.5364011 C12.4783516,8.76313187 12.5851648,9.1167033 12.5851648,9.49450549 C12.5851648,10.1160989 12.2192308,10.4825275 11.7692308,10.6504121 L11.7692308,10.6751374 C11.8698626,10.7003571 11.9779121,10.7320055 12.0721154,10.7740385 C12.4818132,10.9671429 12.7953297,11.3887088 12.7953297,12.1277473 C12.7953297,12.5812088 12.6830769,12.979533 12.4615385,13.2651099 C12.2531044,13.5170604 11.9559066,13.6668956 11.5528846,13.6668956 C11.2774451,13.6668956 11.0057143,13.6298077 10.7369505,13.6298077 C10.4884615,13.6298077 10.2088187,13.6668956 10.0879121,13.6668956 C9.98703297,13.6668956 9.93337912,13.6293132 9.93337912,13.5370879 C9.93337912,13.4446154 10.0505769,13.428544 10.1311813,13.3949176 C10.2587637,13.3528846 10.2918956,13.278956 10.2918956,13.0858516 L10.2918956,9.00618132 C10.2918956,8.74582418 10.2152473,8.64989011 10.0137363,8.64148352 C9.95983516,8.64148352 9.91631868,8.64187912 9.89629121,8.61675824 C9.87601648,8.60835165 9.87156593,8.59475275 9.87156593,8.56112637 C9.87156593,8.47706044 9.98901099,8.4239011 10.143544,8.38186813 C10.4592857,8.28098901 10.7910989,8.2396978 11.1201923,8.2396978 Z M1.5885989,8.3385989 C1.73274725,8.3385989 1.90804945,8.36950549 2.0521978,8.36950549 C2.15703297,8.36950549 2.31898352,8.3385989 2.41071429,8.3385989 C2.48934066,8.3385989 2.50763736,8.34872637 2.54052198,8.47458791 C2.76972527,9.4992033 2.99126374,10.5344505 3.22046703,11.5590659 C3.27288462,11.8110165 3.2981044,11.9793956 3.35027473,11.9793956 C3.39626374,11.9793956 3.4153022,11.901511 3.46771978,11.657967 C3.69717033,10.6335989 3.92414835,9.60824176 4.16002747,8.59203297 C4.19266484,8.40733516 4.23049451,8.3385989 4.29601648,8.3385989 C4.38774725,8.3385989 4.55513736,8.36950549 4.67307692,8.36950549 C4.80412088,8.36950549 4.99994505,8.3385989 5.12431319,8.3385989 C5.18340659,8.3385989 5.24175824,8.37222527 5.24175824,8.45604396 C5.24175824,8.54851648 5.15967033,8.58535714 4.96978022,8.61057692 C4.88447802,8.61898352 4.83997253,8.73593407 4.83997253,9.08035714 C4.83997253,9.84461538 4.9317033,11.991511 4.95123626,12.9993132 C4.9579022,13.2512637 5.01403846,13.3696978 5.10576923,13.3949176 C5.28898352,13.4537637 5.3592033,13.4631593 5.3592033,13.5556319 C5.3592033,13.6478571 5.30233516,13.6669055 5.21085165,13.6669055 C5.09934066,13.6669055 4.95,13.6298077 4.64217033,13.6298077 C4.38675824,13.6298077 4.17857143,13.6669055 4.06730769,13.6669055 C3.9689011,13.6669055 3.91277473,13.631044 3.91277473,13.5556319 L3.91277473,13.5494604 C3.91277473,13.4569879 3.98348901,13.4285538 4.15384615,13.3949275 C4.33730769,13.3697077 4.35164835,13.2806967 4.35164835,12.8942407 C4.35164835,12.0125374 4.29131868,10.2877022 4.26510989,9.41415824 C4.25844396,9.28830659 4.25399341,9.24726264 4.2342033,9.24726264 C4.20799451,9.24726264 4.19835165,9.29127363 4.17857143,9.35852637 C4.11304945,9.58525714 3.96667582,10.2978396 3.44917582,12.5233615 C3.23307692,13.4470978 3.25879121,13.6298176 3.12774725,13.6298176 C3.06222527,13.6298176 3.03304945,13.5633066 2.96085165,13.1600374 C2.77763736,12.1690484 2.25024725,9.85847143 2.13873626,9.34616374 C2.12562198,9.27891099 2.10956044,9.24726264 2.07692308,9.24726264 C2.04403846,9.24726264 2.04651099,9.31500989 2.03365385,9.4327022 C1.98766484,10.1465209 1.96565934,11.4920703 1.96565934,12.2142956 C1.96565934,12.7770429 1.93598901,13.3444879 2.13255495,13.3949275 C2.25049451,13.4285538 2.43543956,13.4317681 2.43543956,13.5494604 C2.43543956,13.6164659 2.40354396,13.6669055 2.31181319,13.6669055 C2.19387363,13.6669055 2.11648352,13.6298176 1.8543956,13.6298176 C1.61851648,13.6298176 1.51244505,13.6669055 1.43406593,13.6669055 C1.37497253,13.6669055 1.32898352,13.6584989 1.32898352,13.5494604 C1.32898352,13.4317681 1.43406593,13.4409165 1.54532967,13.4072901 C1.70258242,13.348444 1.72978022,13.1550923 1.74931319,12.7520703 C1.7821978,11.9205593 1.84821429,9.89506484 1.84821429,9.19781209 C1.84821429,8.73594396 1.84702747,8.64643846 1.65041209,8.60440549 C1.53247253,8.57918571 1.4217033,8.56088901 1.4217033,8.46841648 C1.4217033,8.35097143 1.5164011,8.3385989 1.5885989,8.3385989 L1.5885989,8.3385989 Z M11.2870879,8.47458791 C10.9846978,8.47458791 10.9100275,8.56978022 10.9100275,8.77129121 L10.9100275,10.4896978 C10.9100275,10.5821703 10.9431593,10.6009615 11.0707418,10.6009615 C11.251978,10.6009615 11.4168956,10.5658516 11.5714286,10.4649725 C11.8199176,10.3054945 11.9237637,9.97887363 11.9237637,9.52541209 C11.9237637,8.88725275 11.7101374,8.47458791 11.2870879,8.47458791 Z M7.42376374,10.7184066 C7.34686813,10.7184066 7.09615385,11.0623352 7.09615385,11.25 L7.09615385,13.7534341 C7.09615385,14.3043132 7.25142857,14.3777473 7.47321429,14.3777473 L8.56730769,14.3777473 C8.79576923,14.3777473 8.88428571,14.133956 8.76510989,13.8214286 C8.72505495,13.7163462 8.6625,13.5707143 8.57348901,13.3578297 C8.25651099,12.6074176 7.95115385,11.8575 7.63392857,11.095467 C7.54714286,10.8845604 7.47197802,10.7184066 7.42376374,10.7184066 Z M11.2747253,10.8358516 C10.9456319,10.8358516 10.9167033,10.8551374 10.9100275,10.9223901 L10.9100275,12.8818681 C10.9100275,13.2262912 11.0076923,13.4320055 11.3303571,13.4320055 C11.6191484,13.4320055 11.8394505,13.2792033 11.967033,12.9684066 C12.0676648,12.7500824 12.1153846,12.4538736 12.1153846,12.084478 C12.1153846,11.7652747 12.0555495,11.4970055 11.9546703,11.2870879 C11.8137363,11.001511 11.5771154,10.8358516 11.2747253,10.8358516 Z" id="path13514-1" fill="#B60439" fill-rule="nonzero"></path>
                <path d="M11.3563187,15.5327367 L11.6446154,15.5327367 L11.6446154,16.4364504 L11.6515385,16.4364504 C11.6893681,16.3607594 11.7296703,16.2905622 11.7672527,16.2237221 L12.1853571,15.5327367 L12.5421429,15.5327367 L11.9939835,16.3693052 L12.5775,17.4976502 L12.2372802,17.4976502 L11.7885165,16.5966834 L11.6446154,16.8066648 L11.6446154,17.4976502 L11.3563187,17.4976502 L11.3563187,15.5327367 M8.02285714,17.4976502 L8.02285714,15.5327245 L8.35590659,15.5327245 L8.76708791,16.3751041 C8.87093407,16.5939365 8.96538462,16.8213147 9.03857143,17.034043 L9.04327912,17.0312839 C9.02201538,16.7718592 9.01731758,16.5179281 9.01731758,16.217911 L9.01731758,15.5327245 L9.28657582,15.5327245 L9.28657582,17.4976502 L8.98418571,17.4976502 L8.56855385,16.6317698 C8.46693297,16.4159894 8.36308681,16.1770135 8.2852022,15.9554342 L8.27580659,15.9581933 C8.28741758,16.2118191 8.29212527,16.4715491 8.29212527,16.795067 L8.29212527,17.4976502 L8.02285714,17.4976502 M5.13866374,16.9406501 L5.00168571,17.4976502 L4.70176813,17.4976502 L5.21185055,15.5327367 L5.58272967,15.5327367 L6.09998242,17.4976502 L5.7881967,17.4976502 L5.64404835,16.9406501 L5.13866374,16.9406501 L5.13866374,16.9406501 Z M5.59435055,16.6696275 L5.46924066,16.1855714 C5.43858132,16.066236 5.41261978,15.9319456 5.38888352,15.8184091 L5.3841956,15.8184091 C5.36070659,15.9319456 5.33697033,16.0689829 5.30878352,16.1855714 L5.1858989,16.6696275 L5.59436044,16.6696275 M1.77282198,15.5617312 C1.86504725,15.5385356 2.03268462,15.5180868 2.1980967,15.5180868 C2.41048681,15.5180868 2.54523956,15.5528803 2.65155824,15.6435263 C2.75070659,15.7161652 2.81697033,15.8446568 2.81697033,16.0137407 C2.81697033,16.1944224 2.72474505,16.3577074 2.55240989,16.4364504 L2.55240989,16.4452892 C2.72004725,16.4977845 2.87359121,16.6607643 2.87359121,16.92904 C2.87359121,17.1039228 2.81202527,17.2409601 2.72251978,17.3343531 C2.60903077,17.4567405 2.42235495,17.5180868 2.12960769,17.5180868 C1.96889341,17.5180868 1.84848132,17.5034369 1.77282198,17.4918391 L1.77282198,15.561719 L1.77282198,15.5617312 Z M2.06111868,16.3372586 L2.20996484,16.3372586 C2.41295934,16.3372586 2.52397582,16.2206701 2.52397582,16.054333 C2.52397582,15.8678524 2.41048681,15.7833105 2.22628352,15.7833105 C2.14122857,15.7833105 2.09177802,15.7891216 2.06111868,15.7979603 L2.06111868,16.3372586 Z M2.06111868,17.2382255 C2.09894835,17.2470643 2.1483989,17.2470643 2.21466264,17.2470643 C2.40109121,17.2470643 2.56872857,17.1625223 2.56872857,16.9174422 C2.56872857,16.6900641 2.40578901,16.5966711 2.20501978,16.5966711 L2.06111868,16.5966711 L2.06111868,17.2382133" id="path13524" fill="#FFFFFF"></path>
            </g>
            <path d="M22.5,3.5 L1.5,3.5 C1.22385763,3.5 0.973857625,3.61192881 0.792893219,3.79289322 C0.611928813,3.97385763 0.5,4.22385763 0.5,4.5 L0.5,19.5 C0.5,19.7761424 0.611928813,20.0261424 0.792893219,20.2071068 C0.973857625,20.3880712 1.22385763,20.5 1.5,20.5 L22.5,20.5 C22.7761424,20.5 23.0261424,20.3880712 23.2071068,20.2071068 C23.3880712,20.0261424 23.5,19.7761424 23.5,19.5 L23.5,4.5 C23.5,4.22385763 23.3880712,3.97385763 23.2071068,3.79289322 C23.0261424,3.61192881 22.7761424,3.5 22.5,3.5 Z" id="card-copy" stroke="#DCDCDC"></path>
        </g>
    </g>
</svg>
